# xmcd
#
# Track frame offsets:
#	150
#	13251
#	31565
#	50471
#	67449
#	83064
#	101331
#	119965
#	136988
#	153994
#	171405
#
# Disc length: 2469 seconds
#
# Revision: 0
# Processed by: cddbd v1.5PL3 Copyright (c) Steve Scherf et al.
# Submitted via: dBpowerAMP V4.0
#
DISCID=9609a30b
DTITLE=Jamie O'Neal - On My Way To You
DYEAR=2004
DGENRE=Country
TTITLE0=Every Little Thing
TTITLE1=Naieve
TTITLE2=On My Way To You
TTITLE3=Don't Let Me Go
TTITLE4=Tryin To Find Atlantis
TTITLE5=Follow Me Home
TTITLE6=Ready When It Comes
TTITLE7=When Did You Know
TTITLE8=I Wonder
TTITLE9=Maury County
TTITLE10=Wanna Do Something Fun
EXTD=
EXTT0=
EXTT1=
EXTT2=
EXTT3=
EXTT4=
EXTT5=
EXTT6=
EXTT7=
EXTT8=
EXTT9=
EXTT10=
PLAYORDER=
